<svg width="512" height="411" viewBox="0 0 512 411" fill="none" xmlns="http://www.w3.org/2000/svg">
<g clip-path="url(#clip0)">
<path d="M433.938 -16.543C386.157 -45.211 322.964 -61 256 -61C189.036 -61 125.843 -45.211 78.063 -16.543C27.723 13.66 0 54.694 0 99V211C0 255.306 27.723 296.34 78.063 326.543C125.843 355.211 189.036 371 256 371C322.964 371 386.157 355.211 433.938 326.543C484.277 296.34 512 255.306 512 211V99C512 54.694 484.277 13.66 433.938 -16.543ZM94.526 10.896C137.406 -14.831 194.751 -29 256 -29C317.249 -29 374.595 -14.831 417.474 10.896C457.795 35.089 480 66.378 480 99C480 131.622 457.795 162.911 417.474 187.104C374.595 212.831 317.249 227 256 227C194.751 227 137.406 212.831 94.526 187.104C54.206 162.911 32 131.622 32 99C32 66.378 54.206 35.089 94.526 10.896V10.896ZM384 237.903V315.685C364.341 323.664 342.784 329.698 320 333.627V254.038C342.462 250.485 363.969 245.067 384 237.903ZM192 254.037V333.626C169.216 329.697 147.66 323.663 128 315.684V237.902C148.031 245.067 169.538 250.485 192 254.037ZM32 211V177.234C44.136 190.881 59.566 203.445 78.063 214.543C83.823 217.999 89.813 221.263 96.001 224.34V299.966C95.511 299.677 95.013 299.395 94.527 299.103C54.206 274.911 32 243.622 32 211V211ZM224 337.681V257.778C234.537 258.584 245.219 258.999 256 258.999C266.781 258.999 277.463 258.584 288 257.778V337.681C277.492 338.55 266.809 339 256 339C245.191 339 234.508 338.549 224 337.681ZM480 211C480 243.622 457.795 274.911 417.474 299.104C416.988 299.396 416.49 299.678 416 299.967V224.34C422.188 221.263 428.177 217.999 433.938 214.543C452.434 203.445 467.864 190.881 480.001 177.234V211H480Z" fill="#5ED0FA"/>
</g>
<defs>
<clipPath id="clip0">
<rect width="512" height="512" fill="white" transform="translate(0 -101)"/>
</clipPath>
</defs>
</svg>
