<svg width="375" height="375" viewBox="0 0 375 375" fill="none" xmlns="http://www.w3.org/2000/svg">
<g clip-path="url(#clip0)">
<path d="M187.5 359.375C185.203 359.375 183.016 358.359 181.516 356.594L1.82812 143.172C-0.250008 140.703 -0.593758 137.203 0.953117 134.391L63.9531 19.6875C65.3281 17.1875 67.9531 15.625 70.7969 15.625H304.203C307.062 15.625 309.687 17.1875 311.047 19.6875L374.031 134.391C375.594 137.219 375.234 140.703 373.156 143.172L193.469 356.594C191.984 358.359 189.797 359.375 187.5 359.375V359.375ZM17.25 137.203L187.5 339.437L357.75 137.203L299.578 31.25H75.4219L17.25 137.203Z" fill="#8EEDC7"/>
<path d="M363.281 148.438H11.7188C7.40625 148.438 3.90625 144.937 3.90625 140.625C3.90625 136.313 7.40625 132.812 11.7188 132.812H363.281C367.594 132.812 371.094 136.313 371.094 140.625C371.094 144.937 367.594 148.438 363.281 148.438Z" fill="#8EEDC7"/>
<path d="M266.594 144.047C264.141 144.047 261.719 142.891 260.203 140.719L187.531 37.0781L115.781 140.172C113.344 143.719 108.453 144.578 104.922 142.125C101.359 139.656 100.5 134.797 102.969 131.25L181.094 18.9687C182.547 16.875 184.938 15.625 187.484 15.625H187.5C190.047 15.625 192.422 16.8594 193.891 18.9531L272.984 131.75C275.469 135.297 274.609 140.156 271.078 142.625C269.734 143.578 268.156 144.047 266.594 144.047V144.047Z" fill="#8EEDC7"/>
<path d="M187.5 359.375C184.187 359.375 181.25 357.297 180.141 354.187L63.4375 26.0625C62 21.9844 64.125 17.5156 68.1719 16.0781C72.2656 14.5781 76.7187 16.75 78.1562 20.8125L187.5 328.25L296.844 20.8125C298.281 16.7656 302.734 14.6094 306.828 16.0781C310.891 17.5156 313.016 21.9844 311.563 26.0625L194.859 354.187C193.75 357.297 190.812 359.375 187.5 359.375Z" fill="#8EEDC7"/>
</g>
<defs>
<clipPath id="clip0">
<rect width="375" height="375" fill="white"/>
</clipPath>
</defs>
</svg>
