<svg width="258" height="256" viewBox="0 0 258 256" fill="none" xmlns="http://www.w3.org/2000/svg">
<g filter="url(#filter0_d)">
<path d="M128.975 202.667V234.667H53.9982C48.3167 234.667 42.868 232.419 38.8506 228.418C34.8332 224.417 32.5762 218.991 32.5762 213.333V128C32.5762 116.267 42.2161 106.667 53.9982 106.667H128.975V138.667C124.266 138.675 119.692 140.228 115.958 143.086C112.225 145.943 109.541 149.946 108.322 154.476C107.102 159.005 107.416 163.808 109.213 168.142C111.01 172.477 114.191 176.1 118.264 178.453V192C118.264 194.829 119.393 197.542 121.401 199.542C123.41 201.543 126.134 202.667 128.975 202.667Z" fill="#FADB5F"/>
<path d="M128.975 202.667C131.816 202.667 134.54 201.543 136.549 199.542C138.558 197.542 139.686 194.829 139.686 192V178.453C143.759 176.1 146.94 172.477 148.737 168.142C150.535 163.808 150.848 159.005 149.628 154.476C148.409 149.946 145.725 145.943 141.992 143.086C138.259 140.228 133.684 138.675 128.975 138.667V106.667H203.952C209.633 106.667 215.082 108.914 219.1 112.915C223.117 116.916 225.374 122.342 225.374 128V213.333C225.374 218.991 223.117 224.417 219.1 228.418C215.082 232.419 209.633 234.667 203.952 234.667H128.975V202.667ZM182.53 74.6666C182.53 77.4956 181.402 80.2087 179.393 82.2091C177.384 84.2095 174.66 85.3333 171.819 85.3333C168.978 85.3333 166.254 84.2095 164.245 82.2091C162.237 80.2087 161.108 77.4956 161.108 74.6666C161.108 66.1797 157.723 58.0404 151.697 52.0392C145.67 46.0381 137.497 42.6666 128.975 42.6666C120.453 42.6666 112.28 46.0381 106.254 52.0392C100.228 58.0404 96.8421 66.1797 96.8421 74.6666V106.667H75.4202V74.6666C75.4202 60.5218 81.0625 46.9562 91.106 36.9543C101.15 26.9523 114.771 21.3333 128.975 21.3333C143.179 21.3333 156.801 26.9523 166.844 36.9543C176.888 46.9562 182.53 60.5218 182.53 74.6666Z" fill="#2BB0ED"/>
</g>
<defs>
<filter id="filter0_d" x="-3.55676" y="0" width="265.064" height="264" filterUnits="userSpaceOnUse" color-interpolation-filters="sRGB">
<feFlood flood-opacity="0" result="BackgroundImageFix"/>
<feColorMatrix in="SourceAlpha" type="matrix" values="0 0 0 0 0 0 0 0 0 0 0 0 0 0 0 0 0 0 127 0"/>
<feOffset dy="4"/>
<feGaussianBlur stdDeviation="2"/>
<feColorMatrix type="matrix" values="0 0 0 0 0 0 0 0 0 0 0 0 0 0 0 0 0 0 0.25 0"/>
<feBlend mode="normal" in2="BackgroundImageFix" result="effect1_dropShadow"/>
<feBlend mode="normal" in="SourceGraphic" in2="effect1_dropShadow" result="shape"/>
</filter>
</defs>
</svg>
