<svg width="256" height="256" viewBox="0 0 256 256" fill="none" xmlns="http://www.w3.org/2000/svg">
<g filter="url(#filter0_d)">
<path d="M128 106.667V138.667C123.311 138.675 118.755 140.228 115.037 143.086C111.319 145.943 108.646 149.946 107.432 154.476C106.218 159.005 106.53 163.808 108.319 168.142C110.109 172.477 113.277 176.1 117.333 178.453V192C117.333 194.829 118.457 197.542 120.458 199.542C122.458 201.543 125.171 202.667 128 202.667V234.667H53.3333C47.6754 234.667 42.2492 232.419 38.2484 228.418C34.2476 224.418 32 218.991 32 213.333V128C32 116.267 41.6 106.667 53.3333 106.667H128Z" fill="#FADB5F"/>
<path d="M128 202.667C130.829 202.667 133.542 201.543 135.542 199.542C137.543 197.542 138.667 194.829 138.667 192V178.453C142.723 176.1 145.891 172.477 147.681 168.142C149.47 163.808 149.782 159.005 148.568 154.476C147.354 149.946 144.681 145.943 140.963 143.086C137.245 140.228 132.689 138.675 128 138.667V106.667H160V74.6667C160 66.1798 156.629 58.0404 150.627 52.0393C144.626 46.0381 136.487 42.6667 128 42.6667C119.513 42.6667 111.374 46.0381 105.373 52.0393C99.3714 58.0404 96 66.1798 96 74.6667V106.667H74.6667V74.6667C74.6667 60.5218 80.2857 46.9563 90.2876 36.9543C100.29 26.9524 113.855 21.3333 128 21.3333C142.145 21.3333 155.71 26.9524 165.712 36.9543C175.714 46.9563 181.333 60.5218 181.333 74.6667V106.667H202.667C208.325 106.667 213.751 108.914 217.752 112.915C221.752 116.916 224 122.342 224 128V213.333C224 218.991 221.752 224.418 217.752 228.418C213.751 232.419 208.325 234.667 202.667 234.667H128V202.667Z" fill="#2BB0ED"/>
</g>
<defs>
<filter id="filter0_d" x="-4" y="0" width="264" height="264" filterUnits="userSpaceOnUse" color-interpolation-filters="sRGB">
<feFlood flood-opacity="0" result="BackgroundImageFix"/>
<feColorMatrix in="SourceAlpha" type="matrix" values="0 0 0 0 0 0 0 0 0 0 0 0 0 0 0 0 0 0 127 0"/>
<feOffset dy="4"/>
<feGaussianBlur stdDeviation="2"/>
<feColorMatrix type="matrix" values="0 0 0 0 0 0 0 0 0 0 0 0 0 0 0 0 0 0 0.25 0"/>
<feBlend mode="normal" in2="BackgroundImageFix" result="effect1_dropShadow"/>
<feBlend mode="normal" in="SourceGraphic" in2="effect1_dropShadow" result="shape"/>
</filter>
</defs>
</svg>
