<svg width="512" height="512" viewBox="0 0 512 512" fill="none" xmlns="http://www.w3.org/2000/svg">
<path d="M497 282H466.311C459.82 269.792 451.652 258.457 442 248.205V117C442 108.716 435.284 102 427 102H107C106.662 102 106.332 102.029 106 102.051C105.668 102.029 105.338 102 105 102C47.103 102 0 149.103 0 207C0 259.804 39.184 303.623 90 310.924V497C90 505.284 96.716 512 105 512H497C505.284 512 512 505.284 512 497V297C512 288.716 505.284 282 497 282ZM482 422H252V312H322V327C322 351.813 342.187 372 367 372C391.813 372 412 351.813 412 327V312H482V422ZM120 312H222V422H120V312ZM352 312H382V327C382 335.271 375.271 342 367 342C358.729 342 352 335.271 352 327V312ZM182.903 282C193.291 267.534 206.94 254.975 223.221 245.023C247.861 229.961 276.832 222 307 222C316.26 222 325.406 222.757 334.35 224.233C334.431 224.248 334.51 224.271 334.592 224.284C365.996 229.521 395.079 244 416.481 265.053C416.664 265.233 416.862 265.392 417.052 265.562C422.229 270.706 426.929 276.197 431.097 282H182.903ZM412 133.507V222.981C410.17 221.768 408.314 220.581 406.426 219.427C389.869 209.306 371.712 201.88 352.622 197.325C356.741 165.489 380.904 139.845 412 133.507V133.507ZM322.983 192.665C317.691 192.24 312.363 192 307 192C271.308 192 236.927 201.484 207.574 219.426C181.608 235.299 161.085 256.806 147.689 282H120V132H353.596C337.34 147.913 326.221 169.049 322.983 192.665V192.665ZM30 207C30 170.781 55.809 140.476 90 133.507V280.493C55.809 273.524 30 243.219 30 207V207ZM120 452H222V482H120V452ZM252 482V452H482V482H252Z" fill="#FCE588"/>
<path d="M317 50H322V55C322 63.284 328.716 70 337 70C345.284 70 352 63.284 352 55V50H357C365.284 50 372 43.284 372 35C372 26.716 365.284 20 357 20H352V15C352 6.716 345.284 0 337 0C328.716 0 322 6.716 322 15V20H317C308.716 20 302 26.716 302 35C302 43.284 308.716 50 317 50Z" fill="#FCE588"/>
<path d="M457 50H462V55C462 63.284 468.716 70 477 70C485.284 70 492 63.284 492 55V50H497C505.284 50 512 43.284 512 35C512 26.716 505.284 20 497 20H492V15C492 6.716 485.284 0 477 0C468.716 0 462 6.716 462 15V20H457C448.716 20 442 26.716 442 35C442 43.284 448.716 50 457 50Z" fill="#FCE588"/>
<path d="M55 372H50V367C50 358.716 43.284 352 35 352C26.716 352 20 358.716 20 367V372H15C6.716 372 0 378.716 0 387C0 395.284 6.716 402 15 402H20V407C20 415.284 26.716 422 35 422C43.284 422 50 415.284 50 407V402H55C63.284 402 70 395.284 70 387C70 378.716 63.284 372 55 372Z" fill="#FCE588"/>
</svg>
